<svg width="435" height="74" viewBox="0 0 435 74" fill="none" xmlns="http://www.w3.org/2000/svg">
<g filter="url(#filter0_d)">
<mask id="path-1-outside-1" maskUnits="userSpaceOnUse" x="4" y="0" width="427" height="66" fill="black">
<rect fill="white" x="4" width="427" height="66"/>
<path d="M26.9368 65C22.3313 65 18.3856 64.0395 15.0998 62.1186C11.8409 60.1976 9.33618 57.6273 7.58555 54.4077C5.86185 51.1881 5 47.6303 5 43.7343V42.1516C5 37.7685 5.82145 33.8725 7.46435 30.4635C9.13419 27.0545 11.5043 24.376 14.5746 22.428C17.645 20.453 21.3078 19.4654 25.5632 19.4654C31.8924 19.4654 36.7134 21.4405 40.0261 25.3906C43.3389 29.3137 44.9952 34.5354 44.9952 41.0558V46.2505H17.4026C17.8335 48.929 18.9377 51.0799 20.7153 52.7032C22.5198 54.2995 24.8495 55.0977 27.7044 55.0977C29.7782 55.0977 31.7039 54.7189 33.4815 53.9613C35.286 53.1767 36.8346 51.9592 38.1274 50.3088L44.0257 57.0862C42.6521 59.0613 40.5244 60.874 37.6426 62.5244C34.7608 64.1748 31.1922 65 26.9368 65ZM25.4824 29.3272C23.0854 29.3272 21.254 30.1389 19.9881 31.7622C18.7223 33.3585 17.8874 35.4418 17.4834 38.012H32.9967V37.038C32.9697 34.7924 32.3503 32.9527 31.1383 31.5187C29.9533 30.0577 28.068 29.3272 25.4824 29.3272Z"/>
<path d="M75.0927 20.2771H87.8588L73.2343 64.1883H61.4377L46.7728 20.2771H59.6198L67.336 49.1725L75.0927 20.2771Z"/>
<path d="M116.26 51.9321C116.26 50.7417 115.68 49.7542 114.522 48.9696C113.391 48.1579 111.035 47.3733 107.452 46.6157C104.49 45.9934 101.837 45.1277 99.4938 44.0184C97.1776 42.8821 95.3327 41.4346 93.9591 39.676C92.6125 37.9174 91.9392 35.7664 91.9392 33.2232C91.9392 30.7612 92.6394 28.4885 94.0399 26.4052C95.4404 24.3219 97.4469 22.6445 100.059 21.3729C102.699 20.1012 105.85 19.4654 109.513 19.4654C115.25 19.4654 119.761 20.8047 123.047 23.4832C126.359 26.1346 128.016 29.5301 128.016 33.6696H115.815C115.815 32.0192 115.303 30.68 114.28 29.6519C113.283 28.5967 111.681 28.0691 109.472 28.0691C107.668 28.0691 106.24 28.502 105.19 29.3678C104.14 30.2336 103.615 31.3158 103.615 32.6145C103.615 33.859 104.194 34.8736 105.352 35.6582C106.537 36.4158 108.597 37.0651 111.533 37.6062C114.63 38.2285 117.431 39.0537 119.936 40.0818C122.441 41.0829 124.434 42.5033 125.915 44.3431C127.396 46.1558 128.137 48.5367 128.137 51.4857C128.137 54.0831 127.369 56.3963 125.834 58.4255C124.326 60.4547 122.171 62.0645 119.37 63.2549C116.596 64.4183 113.324 65 109.553 65C105.433 65 101.958 64.256 99.1302 62.7679C96.3023 61.2799 94.1611 59.3995 92.7067 57.1268C91.2524 54.8271 90.5252 52.4868 90.5252 50.1059H102.079C102.187 52.2974 102.982 53.8937 104.463 54.8947C105.971 55.8687 107.762 56.3557 109.836 56.3557C111.937 56.3557 113.526 55.9499 114.603 55.1382C115.707 54.3266 116.26 53.2579 116.26 51.9321Z"/>
<path d="M157.265 29.2055H149.872V50.4711C149.872 52.2568 150.222 53.4473 150.922 54.0425C151.649 54.6377 152.78 54.9353 154.316 54.9353C155.043 54.9353 155.689 54.9083 156.255 54.8542C156.82 54.8 157.305 54.7324 157.709 54.6512L157.669 63.9042C156.672 64.2289 155.581 64.4859 154.396 64.6753C153.238 64.8918 151.932 65 150.478 65C146.545 65 143.421 63.9854 141.105 61.9562C138.816 59.9271 137.671 56.5587 137.671 51.851V29.2055H131.45V20.2771H137.671V9.44134H149.872V20.2771H157.265V29.2055Z"/>
<path d="M163.405 8.95434C163.405 7.14162 164.025 5.64003 165.264 4.44959C166.503 3.25914 168.159 2.66392 170.233 2.66392C172.307 2.66392 173.95 3.25914 175.162 4.44959C176.401 5.64003 177.02 7.14162 177.02 8.95434C177.02 10.7941 176.401 12.3092 175.162 13.4997C173.95 14.6631 172.307 15.2448 170.233 15.2448C168.159 15.2448 166.503 14.6631 165.264 13.4997C164.025 12.3092 163.405 10.7941 163.405 8.95434ZM176.374 64.1883H164.133V20.2771H176.374V64.1883Z"/>
<path d="M188.857 64.1883V29.2055H182.433V20.2771H188.857V16.5434C188.857 11.5111 190.311 7.6692 193.22 5.01776C196.156 2.33925 200.115 1 205.097 1C206.202 1 207.252 1.08117 208.249 1.2435C209.245 1.37878 210.228 1.56817 211.198 1.81167L211.117 11.2676C210.093 11.0512 208.908 10.9429 207.562 10.9429C205.515 10.9429 203.926 11.4299 202.795 12.4039C201.663 13.3509 201.098 14.7307 201.098 16.5434V20.2771H209.703V29.2055H201.098V64.1883H188.857Z"/>
<path d="M235.962 65C231.357 65 227.411 64.0395 224.125 62.1186C220.867 60.1976 218.362 57.6273 216.611 54.4077C214.888 51.1881 214.026 47.6303 214.026 43.7343V42.1516C214.026 37.7685 214.847 33.8725 216.49 30.4635C218.16 27.0545 220.53 24.376 223.6 22.428C226.671 20.453 230.333 19.4654 234.589 19.4654C240.918 19.4654 245.739 21.4405 249.052 25.3906C252.365 29.3137 254.021 34.5354 254.021 41.0558V46.2505H226.428C226.859 48.929 227.963 51.0799 229.741 52.7032C231.545 54.2995 233.875 55.0977 236.73 55.0977C238.804 55.0977 240.73 54.7189 242.507 53.9613C244.312 53.1767 245.86 51.9592 247.153 50.3088L253.051 57.0862C251.678 59.0613 249.55 60.874 246.668 62.5244C243.786 64.1748 240.218 65 235.962 65ZM234.508 29.3272C232.111 29.3272 230.28 30.1389 229.014 31.7622C227.748 33.3585 226.913 35.4418 226.509 38.012H242.022V37.038C241.995 34.7924 241.376 32.9527 240.164 31.5187C238.979 30.0577 237.094 29.3272 234.508 29.3272Z"/>
<path d="M280.806 65C276.2 65 272.254 64.0395 268.969 62.1186C265.71 60.1976 263.205 57.6273 261.454 54.4077C259.731 51.1881 258.869 47.6303 258.869 43.7343V42.1516C258.869 37.7685 259.69 33.8725 261.333 30.4635C263.003 27.0545 265.373 24.376 268.443 22.428C271.514 20.453 275.177 19.4654 279.432 19.4654C285.761 19.4654 290.582 21.4405 293.895 25.3906C297.208 29.3137 298.864 34.5354 298.864 41.0558V46.2505H271.271C271.702 48.929 272.807 51.0799 274.584 52.7032C276.389 54.2995 278.718 55.0977 281.573 55.0977C283.647 55.0977 285.573 54.7189 287.35 53.9613C289.155 53.1767 290.703 51.9592 291.996 50.3088L297.895 57.0862C296.521 59.0613 294.393 60.874 291.511 62.5244C288.63 64.1748 285.061 65 280.806 65ZM279.351 29.3272C276.954 29.3272 275.123 30.1389 273.857 31.7622C272.591 33.3585 271.756 35.4418 271.352 38.012H286.865V37.038C286.839 34.7924 286.219 32.9527 285.007 31.5187C283.822 30.0577 281.937 29.3272 279.351 29.3272Z"/>
<path d="M328.961 20.2771H341.728L327.103 64.1883H315.307L300.642 20.2771H313.489L321.205 49.1725L328.961 20.2771Z"/>
<path d="M367.098 65C362.493 65 358.547 64.0395 355.261 62.1186C352.003 60.1976 349.498 57.6273 347.747 54.4077C346.023 51.1881 345.162 47.6303 345.162 43.7343V42.1516C345.162 37.7685 345.983 33.8725 347.626 30.4635C349.296 27.0545 351.666 24.376 354.736 22.428C357.807 20.453 361.469 19.4654 365.725 19.4654C372.054 19.4654 376.875 21.4405 380.188 25.3906C383.5 29.3137 385.157 34.5354 385.157 41.0558V46.2505H357.564C357.995 48.929 359.099 51.0799 360.877 52.7032C362.681 54.2995 365.011 55.0977 367.866 55.0977C369.94 55.0977 371.865 54.7189 373.643 53.9613C375.448 53.1767 376.996 51.9592 378.289 50.3088L384.187 57.0862C382.814 59.0613 380.686 60.874 377.804 62.5244C374.922 64.1748 371.354 65 367.098 65ZM365.644 29.3272C363.247 29.3272 361.416 30.1389 360.15 31.7622C358.884 33.3585 358.049 35.4418 357.645 38.012H373.158V37.038C373.131 34.7924 372.512 32.9527 371.3 31.5187C370.115 30.0577 368.23 29.3272 365.644 29.3272Z"/>
<path d="M411.942 65C407.336 65 403.39 64.0395 400.105 62.1186C396.846 60.1976 394.341 57.6273 392.59 54.4077C390.867 51.1881 390.005 47.6303 390.005 43.7343V42.1516C390.005 37.7685 390.826 33.8725 392.469 30.4635C394.139 27.0545 396.509 24.376 399.579 22.428C402.65 20.453 406.313 19.4654 410.568 19.4654C416.897 19.4654 421.718 21.4405 425.031 25.3906C428.344 29.3137 430 34.5354 430 41.0558V46.2505H402.407C402.838 48.929 403.942 51.0799 405.72 52.7032C407.525 54.2995 409.854 55.0977 412.709 55.0977C414.783 55.0977 416.709 54.7189 418.486 53.9613C420.291 53.1767 421.839 51.9592 423.132 50.3088L429.03 57.0862C427.657 59.0613 425.529 60.874 422.647 62.5244C419.766 64.1748 416.197 65 411.942 65ZM410.487 29.3272C408.09 29.3272 406.259 30.1389 404.993 31.7622C403.727 33.3585 402.892 35.4418 402.488 38.012H418.001V37.038C417.975 34.7924 417.355 32.9527 416.143 31.5187C414.958 30.0577 413.073 29.3272 410.487 29.3272Z"/>
</mask>
<path d="M26.9368 65C22.3313 65 18.3856 64.0395 15.0998 62.1186C11.8409 60.1976 9.33618 57.6273 7.58555 54.4077C5.86185 51.1881 5 47.6303 5 43.7343V42.1516C5 37.7685 5.82145 33.8725 7.46435 30.4635C9.13419 27.0545 11.5043 24.376 14.5746 22.428C17.645 20.453 21.3078 19.4654 25.5632 19.4654C31.8924 19.4654 36.7134 21.4405 40.0261 25.3906C43.3389 29.3137 44.9952 34.5354 44.9952 41.0558V46.2505H17.4026C17.8335 48.929 18.9377 51.0799 20.7153 52.7032C22.5198 54.2995 24.8495 55.0977 27.7044 55.0977C29.7782 55.0977 31.7039 54.7189 33.4815 53.9613C35.286 53.1767 36.8346 51.9592 38.1274 50.3088L44.0257 57.0862C42.6521 59.0613 40.5244 60.874 37.6426 62.5244C34.7608 64.1748 31.1922 65 26.9368 65ZM25.4824 29.3272C23.0854 29.3272 21.254 30.1389 19.9881 31.7622C18.7223 33.3585 17.8874 35.4418 17.4834 38.012H32.9967V37.038C32.9697 34.7924 32.3503 32.9527 31.1383 31.5187C29.9533 30.0577 28.068 29.3272 25.4824 29.3272Z" fill="url(#paint0_linear)"/>
<path d="M75.0927 20.2771H87.8588L73.2343 64.1883H61.4377L46.7728 20.2771H59.6198L67.336 49.1725L75.0927 20.2771Z" fill="url(#paint1_linear)"/>
<path d="M116.26 51.9321C116.26 50.7417 115.68 49.7542 114.522 48.9696C113.391 48.1579 111.035 47.3733 107.452 46.6157C104.49 45.9934 101.837 45.1277 99.4938 44.0184C97.1776 42.8821 95.3327 41.4346 93.9591 39.676C92.6125 37.9174 91.9392 35.7664 91.9392 33.2232C91.9392 30.7612 92.6394 28.4885 94.0399 26.4052C95.4404 24.3219 97.4469 22.6445 100.059 21.3729C102.699 20.1012 105.85 19.4654 109.513 19.4654C115.25 19.4654 119.761 20.8047 123.047 23.4832C126.359 26.1346 128.016 29.5301 128.016 33.6696H115.815C115.815 32.0192 115.303 30.68 114.28 29.6519C113.283 28.5967 111.681 28.0691 109.472 28.0691C107.668 28.0691 106.24 28.502 105.19 29.3678C104.14 30.2336 103.615 31.3158 103.615 32.6145C103.615 33.859 104.194 34.8736 105.352 35.6582C106.537 36.4158 108.597 37.0651 111.533 37.6062C114.63 38.2285 117.431 39.0537 119.936 40.0818C122.441 41.0829 124.434 42.5033 125.915 44.3431C127.396 46.1558 128.137 48.5367 128.137 51.4857C128.137 54.0831 127.369 56.3963 125.834 58.4255C124.326 60.4547 122.171 62.0645 119.37 63.2549C116.596 64.4183 113.324 65 109.553 65C105.433 65 101.958 64.256 99.1302 62.7679C96.3023 61.2799 94.1611 59.3995 92.7067 57.1268C91.2524 54.8271 90.5252 52.4868 90.5252 50.1059H102.079C102.187 52.2974 102.982 53.8937 104.463 54.8947C105.971 55.8687 107.762 56.3557 109.836 56.3557C111.937 56.3557 113.526 55.9499 114.603 55.1382C115.707 54.3266 116.26 53.2579 116.26 51.9321Z" fill="url(#paint2_linear)"/>
<path d="M157.265 29.2055H149.872V50.4711C149.872 52.2568 150.222 53.4473 150.922 54.0425C151.649 54.6377 152.78 54.9353 154.316 54.9353C155.043 54.9353 155.689 54.9083 156.255 54.8542C156.82 54.8 157.305 54.7324 157.709 54.6512L157.669 63.9042C156.672 64.2289 155.581 64.4859 154.396 64.6753C153.238 64.8918 151.932 65 150.478 65C146.545 65 143.421 63.9854 141.105 61.9562C138.816 59.9271 137.671 56.5587 137.671 51.851V29.2055H131.45V20.2771H137.671V9.44134H149.872V20.2771H157.265V29.2055Z" fill="url(#paint3_linear)"/>
<path d="M163.405 8.95434C163.405 7.14162 164.025 5.64003 165.264 4.44959C166.503 3.25914 168.159 2.66392 170.233 2.66392C172.307 2.66392 173.95 3.25914 175.162 4.44959C176.401 5.64003 177.02 7.14162 177.02 8.95434C177.02 10.7941 176.401 12.3092 175.162 13.4997C173.95 14.6631 172.307 15.2448 170.233 15.2448C168.159 15.2448 166.503 14.6631 165.264 13.4997C164.025 12.3092 163.405 10.7941 163.405 8.95434ZM176.374 64.1883H164.133V20.2771H176.374V64.1883Z" fill="url(#paint4_linear)"/>
<path d="M188.857 64.1883V29.2055H182.433V20.2771H188.857V16.5434C188.857 11.5111 190.311 7.6692 193.22 5.01776C196.156 2.33925 200.115 1 205.097 1C206.202 1 207.252 1.08117 208.249 1.2435C209.245 1.37878 210.228 1.56817 211.198 1.81167L211.117 11.2676C210.093 11.0512 208.908 10.9429 207.562 10.9429C205.515 10.9429 203.926 11.4299 202.795 12.4039C201.663 13.3509 201.098 14.7307 201.098 16.5434V20.2771H209.703V29.2055H201.098V64.1883H188.857Z" fill="url(#paint5_linear)"/>
<path d="M235.962 65C231.357 65 227.411 64.0395 224.125 62.1186C220.867 60.1976 218.362 57.6273 216.611 54.4077C214.888 51.1881 214.026 47.6303 214.026 43.7343V42.1516C214.026 37.7685 214.847 33.8725 216.49 30.4635C218.16 27.0545 220.53 24.376 223.6 22.428C226.671 20.453 230.333 19.4654 234.589 19.4654C240.918 19.4654 245.739 21.4405 249.052 25.3906C252.365 29.3137 254.021 34.5354 254.021 41.0558V46.2505H226.428C226.859 48.929 227.963 51.0799 229.741 52.7032C231.545 54.2995 233.875 55.0977 236.73 55.0977C238.804 55.0977 240.73 54.7189 242.507 53.9613C244.312 53.1767 245.86 51.9592 247.153 50.3088L253.051 57.0862C251.678 59.0613 249.55 60.874 246.668 62.5244C243.786 64.1748 240.218 65 235.962 65ZM234.508 29.3272C232.111 29.3272 230.28 30.1389 229.014 31.7622C227.748 33.3585 226.913 35.4418 226.509 38.012H242.022V37.038C241.995 34.7924 241.376 32.9527 240.164 31.5187C238.979 30.0577 237.094 29.3272 234.508 29.3272Z" fill="url(#paint6_linear)"/>
<path d="M280.806 65C276.2 65 272.254 64.0395 268.969 62.1186C265.71 60.1976 263.205 57.6273 261.454 54.4077C259.731 51.1881 258.869 47.6303 258.869 43.7343V42.1516C258.869 37.7685 259.69 33.8725 261.333 30.4635C263.003 27.0545 265.373 24.376 268.443 22.428C271.514 20.453 275.177 19.4654 279.432 19.4654C285.761 19.4654 290.582 21.4405 293.895 25.3906C297.208 29.3137 298.864 34.5354 298.864 41.0558V46.2505H271.271C271.702 48.929 272.807 51.0799 274.584 52.7032C276.389 54.2995 278.718 55.0977 281.573 55.0977C283.647 55.0977 285.573 54.7189 287.35 53.9613C289.155 53.1767 290.703 51.9592 291.996 50.3088L297.895 57.0862C296.521 59.0613 294.393 60.874 291.511 62.5244C288.63 64.1748 285.061 65 280.806 65ZM279.351 29.3272C276.954 29.3272 275.123 30.1389 273.857 31.7622C272.591 33.3585 271.756 35.4418 271.352 38.012H286.865V37.038C286.839 34.7924 286.219 32.9527 285.007 31.5187C283.822 30.0577 281.937 29.3272 279.351 29.3272Z" fill="url(#paint7_linear)"/>
<path d="M328.961 20.2771H341.728L327.103 64.1883H315.307L300.642 20.2771H313.489L321.205 49.1725L328.961 20.2771Z" fill="url(#paint8_linear)"/>
<path d="M367.098 65C362.493 65 358.547 64.0395 355.261 62.1186C352.003 60.1976 349.498 57.6273 347.747 54.4077C346.023 51.1881 345.162 47.6303 345.162 43.7343V42.1516C345.162 37.7685 345.983 33.8725 347.626 30.4635C349.296 27.0545 351.666 24.376 354.736 22.428C357.807 20.453 361.469 19.4654 365.725 19.4654C372.054 19.4654 376.875 21.4405 380.188 25.3906C383.5 29.3137 385.157 34.5354 385.157 41.0558V46.2505H357.564C357.995 48.929 359.099 51.0799 360.877 52.7032C362.681 54.2995 365.011 55.0977 367.866 55.0977C369.94 55.0977 371.865 54.7189 373.643 53.9613C375.448 53.1767 376.996 51.9592 378.289 50.3088L384.187 57.0862C382.814 59.0613 380.686 60.874 377.804 62.5244C374.922 64.1748 371.354 65 367.098 65ZM365.644 29.3272C363.247 29.3272 361.416 30.1389 360.15 31.7622C358.884 33.3585 358.049 35.4418 357.645 38.012H373.158V37.038C373.131 34.7924 372.512 32.9527 371.3 31.5187C370.115 30.0577 368.23 29.3272 365.644 29.3272Z" fill="url(#paint9_linear)"/>
<path d="M411.942 65C407.336 65 403.39 64.0395 400.105 62.1186C396.846 60.1976 394.341 57.6273 392.59 54.4077C390.867 51.1881 390.005 47.6303 390.005 43.7343V42.1516C390.005 37.7685 390.826 33.8725 392.469 30.4635C394.139 27.0545 396.509 24.376 399.579 22.428C402.65 20.453 406.313 19.4654 410.568 19.4654C416.897 19.4654 421.718 21.4405 425.031 25.3906C428.344 29.3137 430 34.5354 430 41.0558V46.2505H402.407C402.838 48.929 403.942 51.0799 405.72 52.7032C407.525 54.2995 409.854 55.0977 412.709 55.0977C414.783 55.0977 416.709 54.7189 418.486 53.9613C420.291 53.1767 421.839 51.9592 423.132 50.3088L429.03 57.0862C427.657 59.0613 425.529 60.874 422.647 62.5244C419.766 64.1748 416.197 65 411.942 65ZM410.487 29.3272C408.09 29.3272 406.259 30.1389 404.993 31.7622C403.727 33.3585 402.892 35.4418 402.488 38.012H418.001V37.038C417.975 34.7924 417.355 32.9527 416.143 31.5187C414.958 30.0577 413.073 29.3272 410.487 29.3272Z" fill="url(#paint10_linear)"/>
<path d="M26.9368 65C22.3313 65 18.3856 64.0395 15.0998 62.1186C11.8409 60.1976 9.33618 57.6273 7.58555 54.4077C5.86185 51.1881 5 47.6303 5 43.7343V42.1516C5 37.7685 5.82145 33.8725 7.46435 30.4635C9.13419 27.0545 11.5043 24.376 14.5746 22.428C17.645 20.453 21.3078 19.4654 25.5632 19.4654C31.8924 19.4654 36.7134 21.4405 40.0261 25.3906C43.3389 29.3137 44.9952 34.5354 44.9952 41.0558V46.2505H17.4026C17.8335 48.929 18.9377 51.0799 20.7153 52.7032C22.5198 54.2995 24.8495 55.0977 27.7044 55.0977C29.7782 55.0977 31.7039 54.7189 33.4815 53.9613C35.286 53.1767 36.8346 51.9592 38.1274 50.3088L44.0257 57.0862C42.6521 59.0613 40.5244 60.874 37.6426 62.5244C34.7608 64.1748 31.1922 65 26.9368 65ZM25.4824 29.3272C23.0854 29.3272 21.254 30.1389 19.9881 31.7622C18.7223 33.3585 17.8874 35.4418 17.4834 38.012H32.9967V37.038C32.9697 34.7924 32.3503 32.9527 31.1383 31.5187C29.9533 30.0577 28.068 29.3272 25.4824 29.3272Z" stroke="black" stroke-width="2" mask="url(#path-1-outside-1)"/>
<path d="M75.0927 20.2771H87.8588L73.2343 64.1883H61.4377L46.7728 20.2771H59.6198L67.336 49.1725L75.0927 20.2771Z" stroke="black" stroke-width="2" mask="url(#path-1-outside-1)"/>
<path d="M116.26 51.9321C116.26 50.7417 115.68 49.7542 114.522 48.9696C113.391 48.1579 111.035 47.3733 107.452 46.6157C104.49 45.9934 101.837 45.1277 99.4938 44.0184C97.1776 42.8821 95.3327 41.4346 93.9591 39.676C92.6125 37.9174 91.9392 35.7664 91.9392 33.2232C91.9392 30.7612 92.6394 28.4885 94.0399 26.4052C95.4404 24.3219 97.4469 22.6445 100.059 21.3729C102.699 20.1012 105.85 19.4654 109.513 19.4654C115.25 19.4654 119.761 20.8047 123.047 23.4832C126.359 26.1346 128.016 29.5301 128.016 33.6696H115.815C115.815 32.0192 115.303 30.68 114.28 29.6519C113.283 28.5967 111.681 28.0691 109.472 28.0691C107.668 28.0691 106.24 28.502 105.19 29.3678C104.14 30.2336 103.615 31.3158 103.615 32.6145C103.615 33.859 104.194 34.8736 105.352 35.6582C106.537 36.4158 108.597 37.0651 111.533 37.6062C114.63 38.2285 117.431 39.0537 119.936 40.0818C122.441 41.0829 124.434 42.5033 125.915 44.3431C127.396 46.1558 128.137 48.5367 128.137 51.4857C128.137 54.0831 127.369 56.3963 125.834 58.4255C124.326 60.4547 122.171 62.0645 119.37 63.2549C116.596 64.4183 113.324 65 109.553 65C105.433 65 101.958 64.256 99.1302 62.7679C96.3023 61.2799 94.1611 59.3995 92.7067 57.1268C91.2524 54.8271 90.5252 52.4868 90.5252 50.1059H102.079C102.187 52.2974 102.982 53.8937 104.463 54.8947C105.971 55.8687 107.762 56.3557 109.836 56.3557C111.937 56.3557 113.526 55.9499 114.603 55.1382C115.707 54.3266 116.26 53.2579 116.26 51.9321Z" stroke="black" stroke-width="2" mask="url(#path-1-outside-1)"/>
<path d="M157.265 29.2055H149.872V50.4711C149.872 52.2568 150.222 53.4473 150.922 54.0425C151.649 54.6377 152.78 54.9353 154.316 54.9353C155.043 54.9353 155.689 54.9083 156.255 54.8542C156.82 54.8 157.305 54.7324 157.709 54.6512L157.669 63.9042C156.672 64.2289 155.581 64.4859 154.396 64.6753C153.238 64.8918 151.932 65 150.478 65C146.545 65 143.421 63.9854 141.105 61.9562C138.816 59.9271 137.671 56.5587 137.671 51.851V29.2055H131.45V20.2771H137.671V9.44134H149.872V20.2771H157.265V29.2055Z" stroke="black" stroke-width="2" mask="url(#path-1-outside-1)"/>
<path d="M163.405 8.95434C163.405 7.14162 164.025 5.64003 165.264 4.44959C166.503 3.25914 168.159 2.66392 170.233 2.66392C172.307 2.66392 173.95 3.25914 175.162 4.44959C176.401 5.64003 177.02 7.14162 177.02 8.95434C177.02 10.7941 176.401 12.3092 175.162 13.4997C173.95 14.6631 172.307 15.2448 170.233 15.2448C168.159 15.2448 166.503 14.6631 165.264 13.4997C164.025 12.3092 163.405 10.7941 163.405 8.95434ZM176.374 64.1883H164.133V20.2771H176.374V64.1883Z" stroke="black" stroke-width="2" mask="url(#path-1-outside-1)"/>
<path d="M188.857 64.1883V29.2055H182.433V20.2771H188.857V16.5434C188.857 11.5111 190.311 7.6692 193.22 5.01776C196.156 2.33925 200.115 1 205.097 1C206.202 1 207.252 1.08117 208.249 1.2435C209.245 1.37878 210.228 1.56817 211.198 1.81167L211.117 11.2676C210.093 11.0512 208.908 10.9429 207.562 10.9429C205.515 10.9429 203.926 11.4299 202.795 12.4039C201.663 13.3509 201.098 14.7307 201.098 16.5434V20.2771H209.703V29.2055H201.098V64.1883H188.857Z" stroke="black" stroke-width="2" mask="url(#path-1-outside-1)"/>
<path d="M235.962 65C231.357 65 227.411 64.0395 224.125 62.1186C220.867 60.1976 218.362 57.6273 216.611 54.4077C214.888 51.1881 214.026 47.6303 214.026 43.7343V42.1516C214.026 37.7685 214.847 33.8725 216.49 30.4635C218.16 27.0545 220.53 24.376 223.6 22.428C226.671 20.453 230.333 19.4654 234.589 19.4654C240.918 19.4654 245.739 21.4405 249.052 25.3906C252.365 29.3137 254.021 34.5354 254.021 41.0558V46.2505H226.428C226.859 48.929 227.963 51.0799 229.741 52.7032C231.545 54.2995 233.875 55.0977 236.73 55.0977C238.804 55.0977 240.73 54.7189 242.507 53.9613C244.312 53.1767 245.86 51.9592 247.153 50.3088L253.051 57.0862C251.678 59.0613 249.55 60.874 246.668 62.5244C243.786 64.1748 240.218 65 235.962 65ZM234.508 29.3272C232.111 29.3272 230.28 30.1389 229.014 31.7622C227.748 33.3585 226.913 35.4418 226.509 38.012H242.022V37.038C241.995 34.7924 241.376 32.9527 240.164 31.5187C238.979 30.0577 237.094 29.3272 234.508 29.3272Z" stroke="black" stroke-width="2" mask="url(#path-1-outside-1)"/>
<path d="M280.806 65C276.2 65 272.254 64.0395 268.969 62.1186C265.71 60.1976 263.205 57.6273 261.454 54.4077C259.731 51.1881 258.869 47.6303 258.869 43.7343V42.1516C258.869 37.7685 259.69 33.8725 261.333 30.4635C263.003 27.0545 265.373 24.376 268.443 22.428C271.514 20.453 275.177 19.4654 279.432 19.4654C285.761 19.4654 290.582 21.4405 293.895 25.3906C297.208 29.3137 298.864 34.5354 298.864 41.0558V46.2505H271.271C271.702 48.929 272.807 51.0799 274.584 52.7032C276.389 54.2995 278.718 55.0977 281.573 55.0977C283.647 55.0977 285.573 54.7189 287.35 53.9613C289.155 53.1767 290.703 51.9592 291.996 50.3088L297.895 57.0862C296.521 59.0613 294.393 60.874 291.511 62.5244C288.63 64.1748 285.061 65 280.806 65ZM279.351 29.3272C276.954 29.3272 275.123 30.1389 273.857 31.7622C272.591 33.3585 271.756 35.4418 271.352 38.012H286.865V37.038C286.839 34.7924 286.219 32.9527 285.007 31.5187C283.822 30.0577 281.937 29.3272 279.351 29.3272Z" stroke="black" stroke-width="2" mask="url(#path-1-outside-1)"/>
<path d="M328.961 20.2771H341.728L327.103 64.1883H315.307L300.642 20.2771H313.489L321.205 49.1725L328.961 20.2771Z" stroke="black" stroke-width="2" mask="url(#path-1-outside-1)"/>
<path d="M367.098 65C362.493 65 358.547 64.0395 355.261 62.1186C352.003 60.1976 349.498 57.6273 347.747 54.4077C346.023 51.1881 345.162 47.6303 345.162 43.7343V42.1516C345.162 37.7685 345.983 33.8725 347.626 30.4635C349.296 27.0545 351.666 24.376 354.736 22.428C357.807 20.453 361.469 19.4654 365.725 19.4654C372.054 19.4654 376.875 21.4405 380.188 25.3906C383.5 29.3137 385.157 34.5354 385.157 41.0558V46.2505H357.564C357.995 48.929 359.099 51.0799 360.877 52.7032C362.681 54.2995 365.011 55.0977 367.866 55.0977C369.94 55.0977 371.865 54.7189 373.643 53.9613C375.448 53.1767 376.996 51.9592 378.289 50.3088L384.187 57.0862C382.814 59.0613 380.686 60.874 377.804 62.5244C374.922 64.1748 371.354 65 367.098 65ZM365.644 29.3272C363.247 29.3272 361.416 30.1389 360.15 31.7622C358.884 33.3585 358.049 35.4418 357.645 38.012H373.158V37.038C373.131 34.7924 372.512 32.9527 371.3 31.5187C370.115 30.0577 368.23 29.3272 365.644 29.3272Z" stroke="black" stroke-width="2" mask="url(#path-1-outside-1)"/>
<path d="M411.942 65C407.336 65 403.39 64.0395 400.105 62.1186C396.846 60.1976 394.341 57.6273 392.59 54.4077C390.867 51.1881 390.005 47.6303 390.005 43.7343V42.1516C390.005 37.7685 390.826 33.8725 392.469 30.4635C394.139 27.0545 396.509 24.376 399.579 22.428C402.65 20.453 406.313 19.4654 410.568 19.4654C416.897 19.4654 421.718 21.4405 425.031 25.3906C428.344 29.3137 430 34.5354 430 41.0558V46.2505H402.407C402.838 48.929 403.942 51.0799 405.72 52.7032C407.525 54.2995 409.854 55.0977 412.709 55.0977C414.783 55.0977 416.709 54.7189 418.486 53.9613C420.291 53.1767 421.839 51.9592 423.132 50.3088L429.03 57.0862C427.657 59.0613 425.529 60.874 422.647 62.5244C419.766 64.1748 416.197 65 411.942 65ZM410.487 29.3272C408.09 29.3272 406.259 30.1389 404.993 31.7622C403.727 33.3585 402.892 35.4418 402.488 38.012H418.001V37.038C417.975 34.7924 417.355 32.9527 416.143 31.5187C414.958 30.0577 413.073 29.3272 410.487 29.3272Z" stroke="black" stroke-width="2" mask="url(#path-1-outside-1)"/>
</g>
<defs>
<filter id="filter0_d" x="0" y="0" width="435" height="74" filterUnits="userSpaceOnUse" color-interpolation-filters="sRGB">
<feFlood flood-opacity="0" result="BackgroundImageFix"/>
<feColorMatrix in="SourceAlpha" type="matrix" values="0 0 0 0 0 0 0 0 0 0 0 0 0 0 0 0 0 0 127 0"/>
<feOffset dy="4"/>
<feGaussianBlur stdDeviation="2"/>
<feColorMatrix type="matrix" values="0 0 0 0 0 0 0 0 0 0 0 0 0 0 0 0 0 0 0.25 0"/>
<feBlend mode="normal" in2="BackgroundImageFix" result="effect1_dropShadow"/>
<feBlend mode="normal" in="SourceGraphic" in2="effect1_dropShadow" result="shape"/>
</filter>
<linearGradient id="paint0_linear" x1="427.064" y1="27.5369" x2="9.04397" y2="20.8817" gradientUnits="userSpaceOnUse">
<stop stop-color="#FFE471"/>
<stop offset="1" stop-color="#FFF084"/>
</linearGradient>
<linearGradient id="paint1_linear" x1="427.064" y1="27.5369" x2="9.04397" y2="20.8817" gradientUnits="userSpaceOnUse">
<stop stop-color="#FFE471"/>
<stop offset="1" stop-color="#FFF084"/>
</linearGradient>
<linearGradient id="paint2_linear" x1="427.064" y1="27.5369" x2="9.04397" y2="20.8817" gradientUnits="userSpaceOnUse">
<stop stop-color="#FFE471"/>
<stop offset="1" stop-color="#FFF084"/>
</linearGradient>
<linearGradient id="paint3_linear" x1="427.064" y1="27.5369" x2="9.04397" y2="20.8817" gradientUnits="userSpaceOnUse">
<stop stop-color="#FFE471"/>
<stop offset="1" stop-color="#FFF084"/>
</linearGradient>
<linearGradient id="paint4_linear" x1="427.064" y1="27.5369" x2="9.04397" y2="20.8817" gradientUnits="userSpaceOnUse">
<stop stop-color="#FFE471"/>
<stop offset="1" stop-color="#FFF084"/>
</linearGradient>
<linearGradient id="paint5_linear" x1="427.064" y1="27.5369" x2="9.04397" y2="20.8817" gradientUnits="userSpaceOnUse">
<stop stop-color="#FFE471"/>
<stop offset="1" stop-color="#FFF084"/>
</linearGradient>
<linearGradient id="paint6_linear" x1="427.064" y1="27.5369" x2="9.04397" y2="20.8817" gradientUnits="userSpaceOnUse">
<stop stop-color="#FFE471"/>
<stop offset="1" stop-color="#FFF084"/>
</linearGradient>
<linearGradient id="paint7_linear" x1="427.064" y1="27.5369" x2="9.04397" y2="20.8817" gradientUnits="userSpaceOnUse">
<stop stop-color="#FFE471"/>
<stop offset="1" stop-color="#FFF084"/>
</linearGradient>
<linearGradient id="paint8_linear" x1="427.064" y1="27.5369" x2="9.04397" y2="20.8817" gradientUnits="userSpaceOnUse">
<stop stop-color="#FFE471"/>
<stop offset="1" stop-color="#FFF084"/>
</linearGradient>
<linearGradient id="paint9_linear" x1="427.064" y1="27.5369" x2="9.04397" y2="20.8817" gradientUnits="userSpaceOnUse">
<stop stop-color="#FFE471"/>
<stop offset="1" stop-color="#FFF084"/>
</linearGradient>
<linearGradient id="paint10_linear" x1="427.064" y1="27.5369" x2="9.04397" y2="20.8817" gradientUnits="userSpaceOnUse">
<stop stop-color="#FFE471"/>
<stop offset="1" stop-color="#FFF084"/>
</linearGradient>
</defs>
</svg>
